<?xml version="1.0" standalone="no"?>
<!DOCTYPE svg PUBLIC "-//W3C//DTD SVG 20010904//EN"
 "http://www.w3.org/TR/2001/REC-SVG-20010904/DTD/svg10.dtd">
<svg version="1.0" xmlns="http://www.w3.org/2000/svg"
 width="1402.000000pt" height="1402.000000pt" viewBox="0 0 1402.000000 1402.000000"
 preserveAspectRatio="xMidYMid meet">
<metadata>
Created by potrace 1.14, written by Peter Selinger 2001-2017
</metadata>
<g transform="translate(0.000000,1402.000000) scale(0.100000,-0.100000)"
fill="#000000" stroke="none">
<path d="M4299 12381 c-139 -22 -203 -40 -332 -93 l-97 -40 -48 19 c-39 15
-75 18 -207 17 -147 0 -169 -3 -279 -33 -143 -38 -306 -105 -406 -167 -68 -42
-75 -44 -107 -33 -73 24 -172 -11 -350 -123 -66 -42 -168 -101 -226 -131 -203
-105 -324 -202 -598 -483 -101 -104 -146 -160 -231 -289 -182 -278 -217 -344
-289 -549 -75 -211 -89 -311 -89 -629 0 -244 1 -263 21 -304 l21 -43 -26 -67
c-35 -92 -82 -371 -96 -572 -13 -175 -7 -336 16 -486 8 -49 21 -151 28 -225 8
-74 17 -160 21 -190 5 -45 2 -67 -19 -121 -51 -136 -69 -331 -46 -519 13 -105
31 -161 86 -272 61 -122 96 -175 268 -402 155 -204 372 -438 466 -501 25 -16
82 -59 126 -95 76 -61 213 -142 312 -185 45 -19 50 -29 28 -54 -26 -30 -145
-266 -189 -376 -35 -86 -102 -281 -133 -382 -4 -14 -120 45 -214 107 -133 89
-207 110 -395 110 -146 0 -221 -13 -342 -60 -147 -56 -248 -135 -323 -252 -82
-125 -132 -332 -133 -543 -1 -159 19 -258 73 -370 52 -108 117 -186 224 -266
111 -85 182 -123 276 -148 98 -26 340 -61 424 -61 l66 0 0 -312 c0 -510 33
-774 134 -1095 100 -316 207 -482 406 -632 149 -112 391 -216 581 -251 345
-63 797 -98 1099 -86 85 4 376 11 645 15 587 11 716 24 935 93 181 58 311 140
478 302 169 164 248 287 317 495 67 204 88 362 105 781 7 157 15 336 18 398
l7 113 65 22 c36 12 96 41 132 64 37 23 69 39 72 35 3 -3 6 -15 6 -27 0 -37
37 -132 70 -180 54 -78 127 -142 218 -188 136 -70 210 -89 336 -85 l106 3 0
-105 c0 -115 29 -339 61 -467 37 -150 149 -477 198 -578 55 -112 130 -204 263
-326 196 -178 373 -270 630 -330 419 -96 584 -122 891 -140 227 -14 710 1 907
26 188 25 449 73 540 99 128 37 346 114 401 141 26 14 59 25 72 25 64 0 118
32 238 144 170 156 263 299 358 548 103 273 112 329 117 763 6 414 -2 534 -50
777 -18 95 -39 213 -45 262 l-12 89 77 101 c109 142 166 207 354 401 148 153
427 487 507 605 85 127 126 262 142 476 6 77 20 416 31 754 27 847 38 963 116
1262 51 197 71 304 90 492 16 151 16 201 6 465 -13 333 -34 569 -63 714 -47
233 -180 610 -299 847 -52 102 -264 423 -439 660 -102 140 -239 269 -465 439
-60 45 -139 110 -177 143 -182 163 -497 333 -866 467 -77 28 -210 81 -294 117
-84 36 -207 82 -274 102 l-120 37 -320 0 c-364 0 -400 -4 -747 -75 -403 -82
-430 -92 -678 -271 l-145 -104 -175 0 c-150 0 -187 -3 -262 -23 -119 -32 -197
-64 -303 -124 -228 -130 -374 -253 -496 -415 -62 -82 -193 -282 -202 -307 -1
-4 -50 39 -107 96 -110 110 -188 167 -279 204 l-55 23 3 48 c5 100 -76 398
-147 538 -19 39 -36 77 -36 85 -4 31 -167 199 -272 279 -88 66 -345 194 -449
223 -139 38 -480 28 -602 -19 -9 -4 -13 6 -13 34 0 45 -17 74 -63 102 -87 53
-356 74 -558 42z m-379 -1742 c69 -4 233 -13 365 -18 149 -6 291 -18 375 -31
85 -14 220 -25 365 -30 625 -23 608 -22 640 -42 17 -10 47 -18 68 -18 36 0 37
-1 37 -35 0 -54 27 -119 88 -215 186 -292 208 -322 295 -412 51 -51 121 -114
157 -139 81 -58 347 -195 417 -215 51 -15 52 -16 62 -65 31 -144 36 -206 36
-469 -1 -247 -3 -285 -22 -370 -35 -149 -71 -280 -81 -293 -5 -7 -26 -70 -47
-140 l-38 -128 27 -87 c42 -136 52 -221 37 -343 -6 -57 -20 -185 -30 -284 -23
-215 -46 -313 -111 -458 -91 -204 -205 -356 -424 -565 -140 -134 -403 -307
-587 -387 -117 -52 -188 -74 -349 -108 -197 -43 -299 -50 -735 -51 -493 -1
-772 9 -920 34 -60 11 -166 26 -235 35 -221 28 -408 80 -720 202 -261 102
-411 179 -519 264 -52 41 -120 95 -153 121 -33 25 -94 86 -136 136 -42 49
-116 132 -164 186 -159 177 -281 344 -345 471 -53 105 -72 194 -73 340 0 103
9 145 56 275 27 74 27 76 15 185 -7 61 -17 155 -22 210 -5 55 -16 134 -24 175
-31 157 -38 253 -31 415 10 240 45 534 65 559 6 7 18 32 26 56 28 78 152 290
229 390 311 404 635 633 1004 710 75 15 164 35 197 44 123 31 316 57 515 67
113 5 259 16 325 23 142 16 198 17 365 5z m5008 -293 c63 -42 148 -103 190
-134 97 -74 180 -120 307 -170 55 -22 147 -62 206 -90 58 -27 170 -73 250
-102 162 -59 185 -70 354 -162 66 -36 161 -86 210 -111 105 -52 386 -212 436
-247 19 -14 35 -24 37 -22 1 1 17 -5 35 -14 l32 -17 -65 -22 c-187 -62 -375
-162 -375 -200 0 -32 30 -28 107 14 40 22 120 58 178 81 58 23 125 52 149 66
24 13 49 24 55 24 6 0 61 -46 121 -102 61 -57 169 -151 240 -210 130 -106 161
-139 289 -298 38 -47 121 -139 186 -205 64 -66 143 -149 174 -184 l59 -65 -6
-70 c-5 -68 -53 -240 -84 -299 -12 -25 -11 -35 11 -106 41 -130 57 -362 36
-501 -18 -112 -99 -328 -158 -425 -52 -84 -202 -272 -259 -327 -84 -79 -104
-82 -219 -35 -74 30 -287 53 -421 45 -203 -13 -465 -143 -613 -305 -92 -101
-150 -222 -165 -345 -7 -52 -10 -58 -39 -68 -93 -33 -494 -35 -686 -4 -303 51
-1016 292 -1254 424 -106 59 -115 67 -178 141 l-47 56 -16 129 c-14 118 -32
224 -100 599 -51 282 -95 640 -95 782 0 115 -27 400 -51 543 -39 236 -37 577
6 827 20 113 103 361 163 483 38 77 61 110 127 176 44 44 114 104 155 133 332
230 459 323 514 380 49 50 50 50 70 32 12 -10 72 -53 134 -95z m-2233 -3923
c9 -43 27 -118 40 -168 38 -143 72 -312 84 -415 17 -143 51 -335 72 -414 106
-394 149 -587 163 -743 l6 -63 -48 -24 c-67 -34 -166 -110 -202 -157 -18 -21
-35 -39 -38 -39 -4 0 -21 31 -39 68 -45 95 -159 204 -274 261 -95 47 -165 63
-258 60 l-64 -2 -42 139 c-45 152 -71 223 -171 461 -99 237 -135 326 -132 327
2 1 39 24 83 51 143 87 318 211 389 276 101 92 310 323 359 396 23 34 45 63
49 63 4 0 14 -35 23 -77z m4512 -204 c112 -12 131 -18 169 -55 16 -14 68 -56
116 -91 219 -161 271 -291 219 -552 -35 -177 -111 -310 -204 -355 -136 -66
-349 -74 -562 -21 -182 46 -335 180 -421 369 -126 279 54 586 406 692 85 26
140 29 277 13z m-3092 -158 c27 -12 51 -24 53 -26 3 -3 -137 -365 -159 -410
-6 -14 -8 -2 -4 40 5 62 24 362 24 402 1 27 14 26 86 -6z m310 -185 c153 -86
648 -257 870 -301 44 -9 169 -21 278 -26 199 -11 219 -10 514 22 101 11 114
11 137 -5 31 -19 27 -31 -10 -40 -15 -4 -46 -20 -68 -35 -23 -15 -68 -42 -101
-60 -68 -38 -291 -202 -395 -291 -38 -33 -72 -60 -75 -60 -4 0 -46 33 -93 74
-249 211 -583 404 -932 537 -115 44 -225 92 -239 105 -4 4 41 114 47 114 3 0
33 -15 67 -34z m-2677 -808 c158 -408 282 -996 282 -1334 l0 -105 -97 75 c-54
41 -135 106 -180 144 -102 87 -246 188 -354 249 -120 66 -306 183 -320 199
-10 12 -5 22 23 52 57 59 174 217 234 316 76 125 348 534 355 535 3 1 29 -59
57 -131z m-1847 65 c13 -21 73 -90 134 -153 61 -63 155 -167 208 -232 53 -64
101 -119 107 -123 5 -3 46 -51 90 -105 44 -54 112 -133 151 -176 l71 -76 -154
-157 c-84 -86 -201 -208 -258 -272 -58 -64 -163 -180 -235 -258 -71 -79 -132
-147 -133 -152 -2 -6 -11 4 -20 20 -10 16 -137 155 -283 308 -347 364 -364
383 -438 486 l-63 87 27 33 c14 17 44 60 66 94 22 34 108 133 192 220 84 88
203 215 265 283 199 220 189 210 221 210 23 0 34 -8 52 -37z m-1586 -178 c48
-71 120 -175 160 -230 40 -55 125 -176 188 -269 l116 -170 -47 -40 c-26 -22
-81 -72 -122 -111 -41 -39 -118 -107 -170 -151 -52 -43 -203 -171 -335 -283
-190 -163 -241 -201 -244 -186 -5 27 17 279 35 399 21 140 65 310 139 536 35
107 92 295 126 418 34 122 63 221 64 220 1 -2 42 -61 90 -133z m-890 30 c34
-9 89 -35 126 -60 72 -47 165 -96 246 -130 l53 -21 -74 -215 c-95 -280 -131
-421 -171 -686 -4 -24 -11 -43 -16 -43 -33 0 -393 63 -432 76 -110 36 -270
171 -316 267 -49 102 -63 253 -36 396 47 244 115 330 314 395 119 39 211 45
306 21z m4882 -480 c45 -22 89 -55 125 -93 72 -76 98 -150 105 -308 7 -148
-15 -227 -84 -305 -42 -46 -125 -109 -144 -109 -3 0 -9 80 -12 178 -6 177 -30
360 -77 567 -11 50 -20 93 -20 98 0 16 41 5 107 -28z m1238 -65 c8 -13 -23
-154 -105 -475 -66 -257 -85 -365 -106 -597 l-6 -67 -71 -3 c-93 -4 -157 10
-241 53 -128 64 -186 156 -186 293 0 93 28 303 49 379 43 148 114 249 226 324
44 30 89 55 100 58 48 9 282 43 307 44 15 0 30 -3 33 -9z m1218 -192 c58 -33
104 -97 118 -167 l13 -59 27 58 c31 66 90 127 154 159 130 65 292 15 360 -111
24 -44 30 -68 33 -138 4 -76 1 -94 -23 -155 -70 -176 -167 -252 -313 -243
-161 9 -253 116 -256 298 -1 61 -2 64 -14 40 -20 -39 -73 -90 -117 -113 -29
-15 -65 -22 -127 -25 l-88 -4 0 -86 c0 -65 -4 -90 -17 -104 -21 -24 -58 -23
-83 2 -17 17 -20 33 -20 115 0 81 -3 100 -20 124 -17 22 -19 32 -11 53 5 14
15 29 20 33 7 4 11 56 11 138 0 149 7 170 62 181 18 3 56 13 83 21 65 19 155
12 208 -17z m1133 7 c27 -8 67 -28 90 -44 125 -93 139 -305 30 -475 -65 -102
-143 -148 -250 -147 -144 0 -239 87 -266 242 -22 128 26 267 126 358 82 76
168 97 270 66z m324 -5 c12 -7 16 -39 20 -142 l5 -133 112 -3 111 -3 4 127 c3
118 4 127 27 145 29 23 59 24 83 2 16 -14 18 -33 18 -141 0 -120 1 -126 25
-148 14 -13 25 -34 25 -49 0 -15 -11 -36 -25 -49 -23 -22 -25 -30 -25 -121 0
-113 -11 -135 -66 -135 -49 0 -64 36 -64 150 l0 90 -115 0 -115 0 0 -102 c0
-80 -3 -105 -17 -120 -21 -24 -65 -23 -87 1 -16 18 -18 48 -18 306 0 285 0
286 23 311 23 25 53 30 79 14z m-4395 -1385 l170 0 -1 -111 c-1 -95 -26 -379
-40 -451 -2 -12 -13 -27 -23 -32 -19 -11 -1668 2 -1678 13 -3 2 16 27 42 55
l47 50 -8 175 -7 175 -48 47 c-27 27 -49 51 -49 55 0 11 193 18 675 24 247 4
452 9 455 12 3 3 70 1 150 -3 80 -5 222 -8 315 -9z m2140 -25 c220 -6 600 -17
845 -26 245 -8 580 -19 745 -24 165 -5 352 -14 415 -20 346 -30 1344 -40 1530
-15 58 8 149 15 203 15 l98 0 -6 -122 c-12 -266 -15 -294 -46 -389 -40 -124
-135 -320 -200 -414 -81 -118 -273 -276 -412 -340 -183 -84 -455 -150 -807
-197 -161 -21 -210 -23 -620 -23 -490 1 -601 10 -907 75 -398 84 -538 133
-718 250 -50 32 -108 66 -128 76 -20 10 -37 23 -37 30 0 6 -27 47 -61 90 -70
90 -88 125 -154 284 -118 288 -191 534 -211 714 l-7 59 39 -6 c21 -4 219 -11
439 -17z m-4012 -14 c18 -8 71 -48 119 -90 49 -42 90 -71 93 -65 4 5 -8 35
-26 65 -19 30 -35 50 -37 44 -2 -6 3 -22 12 -35 9 -14 14 -25 11 -25 -8 0
-134 104 -130 108 2 2 16 5 32 7 36 4 75 -20 140 -87 l52 -53 11 -100 c7 -55
14 -103 16 -107 4 -7 -37 -59 -123 -155 -31 -35 -55 -53 -70 -53 -21 0 -18 7
33 68 63 74 81 94 70 75 -3 -6 -2 -14 3 -18 6 -3 15 11 20 32 22 78 9 83 -34
15 -16 -26 -59 -77 -95 -114 l-65 -68 -161 0 -162 0 -92 105 c-50 58 -98 105
-106 105 -8 0 -14 -2 -14 -5 0 -15 52 -105 60 -105 14 0 12 12 -6 40 -9 14 20
-13 64 -60 66 -70 76 -86 60 -88 -25 -4 -70 26 -175 120 l-82 73 6 105 c5 100
7 106 37 138 17 19 60 55 95 80 55 39 73 47 130 52 124 13 280 11 314 -4z
m-638 -36 l-40 -41 4 -182 c2 -146 6 -185 18 -199 9 -10 49 -39 89 -64 41 -26
73 -48 71 -50 -2 -2 -249 -6 -549 -10 -489 -5 -839 -15 -892 -25 -15 -3 -23 7
-38 51 -31 92 -59 209 -77 325 l-17 111 85 0 c47 1 156 13 241 27 85 14 193
29 240 32 47 3 168 14 270 25 251 27 384 36 520 38 l114 2 -39 -40z"/>
<path d="M5300 9810 c-275 -43 -369 -71 -570 -165 -74 -35 -162 -75 -194 -90
-120 -52 -155 -99 -97 -130 23 -12 36 -13 58 -4 15 6 51 15 78 19 28 5 115 23
195 39 206 43 436 81 500 83 49 1 61 -3 115 -39 161 -108 228 -136 360 -149
124 -13 136 27 39 125 -36 36 -82 95 -102 131 -50 91 -77 125 -132 165 -56 41
-75 42 -250 15z"/>
<path d="M1995 9778 c-44 -5 -82 -13 -83 -19 -2 -5 -23 -19 -45 -30 -52 -26
-399 -376 -395 -398 5 -25 35 -24 70 2 72 53 269 147 375 178 l108 32 340 -1
c187 0 351 -3 365 -6 108 -24 62 82 -60 138 -98 45 -305 95 -435 106 -134 11
-129 11 -240 -2z"/>
<path d="M2242 9139 c-101 -21 -237 -83 -307 -139 -53 -42 -120 -124 -151
-182 -53 -103 -95 -336 -76 -423 l11 -49 -49 -46 c-45 -44 -69 -85 -56 -97 3
-3 65 17 138 45 85 32 184 61 273 79 134 27 151 28 430 28 198 -1 309 -5 350
-14 84 -18 235 -65 276 -86 39 -21 135 -90 144 -105 9 -14 45 -13 45 2 0 25
-53 87 -109 127 -58 42 -58 43 -50 79 20 84 4 237 -33 326 -12 28 -50 95 -84
148 -50 77 -78 108 -131 148 -71 53 -212 126 -298 155 -77 26 -213 28 -323 4z
m417 -235 c44 -56 56 -185 19 -192 -15 -3 -18 4 -18 40 -1 61 -15 117 -39 149
-12 16 -21 33 -21 39 0 16 35 -5 59 -36z m-728 -231 c9 -87 18 -127 40 -174
16 -33 29 -65 29 -69 0 -5 -21 -12 -47 -15 -51 -7 -136 -28 -167 -40 -18 -8
-18 -4 -11 71 14 163 45 262 111 364 l29 45 2 -35 c1 -19 8 -86 14 -147z
m1080 -9 c25 -51 32 -82 43 -187 l12 -126 -26 6 c-29 7 -173 54 -179 59 -2 2
8 17 23 34 43 52 60 129 53 244 l-6 99 25 -34 c14 -19 39 -61 55 -95z"/>
<path d="M4982 9145 c-151 -33 -339 -154 -443 -286 -127 -160 -184 -311 -196
-515 -6 -107 -7 -115 -34 -140 -55 -52 -26 -88 32 -40 47 40 186 86 479 159
116 29 137 32 300 31 191 0 442 -31 650 -80 105 -26 206 -34 229 -20 17 11
-30 60 -73 77 -17 7 -32 13 -34 14 -1 1 -11 51 -22 111 -11 60 -27 132 -36
159 -24 71 -99 221 -140 277 -82 111 -216 204 -358 247 -81 25 -253 28 -354 6z
m322 -189 c59 -45 112 -171 82 -195 -20 -16 -36 -6 -36 23 0 42 -60 147 -96
168 -19 11 -34 22 -34 24 0 14 58 0 84 -20z m-645 -153 c-7 -32 -13 -110 -13
-173 0 -126 15 -176 69 -218 l26 -20 -38 -13 c-21 -6 -93 -33 -160 -59 l-123
-48 0 57 c0 130 52 291 130 406 37 53 111 137 117 131 3 -2 -1 -31 -8 -63z
m961 -35 c52 -94 86 -176 114 -281 31 -112 31 -110 9 -103 -10 3 -76 13 -148
22 -71 9 -131 17 -133 19 -2 2 13 26 32 53 56 78 78 151 78 260 0 50 3 92 7
92 3 0 22 -28 41 -62z"/>
<path d="M4590 7315 c-51 -19 -252 -63 -345 -75 -324 -43 -703 -25 -1191 55
-84 14 -160 22 -169 19 -28 -11 -14 -100 29 -181 93 -175 277 -332 511 -436
136 -60 190 -71 375 -71 152 0 172 2 255 28 173 53 329 156 426 283 123 159
199 310 185 367 -7 29 -22 31 -76 11z m-11 -97 c-12 -24 -55 -94 -96 -155 -56
-86 -89 -125 -141 -167 -130 -103 -275 -159 -450 -172 -98 -7 -269 9 -335 32
-56 19 -167 77 -245 127 -52 33 -61 43 -56 61 11 35 89 215 94 217 3 2 66 -3
140 -10 196 -19 573 -10 755 18 140 22 311 64 330 82 22 22 24 6 4 -33z
m-1474 -18 c66 -11 137 -20 158 -20 20 0 37 -3 37 -6 0 -3 -11 -20 -24 -37
-13 -18 -38 -60 -57 -94 -18 -35 -36 -63 -40 -63 -10 0 -111 111 -162 178 -27
34 -45 62 -40 62 4 0 62 -9 128 -20z"/>
<path d="M8368 9335 c-146 -31 -327 -106 -348 -145 -19 -36 67 -26 217 26 206
70 294 73 593 19 185 -34 272 -58 388 -107 96 -40 132 -43 132 -8 0 27 -119
90 -250 134 -218 72 -582 113 -732 81z"/>
<path d="M8622 8879 c-129 -22 -325 -131 -416 -230 -105 -113 -145 -221 -151
-414 l-4 -129 -33 -17 c-41 -21 -72 -54 -63 -68 11 -19 54 -12 125 19 153 67
317 87 820 100 401 11 430 10 534 -16 32 -8 60 -13 63 -10 10 9 -19 46 -47 61
-29 15 -30 18 -30 88 0 85 -31 232 -62 295 -30 62 -191 223 -250 250 -123 57
-368 92 -486 71z m358 -224 c55 -28 80 -126 43 -167 -34 -38 -61 -16 -42 35
15 41 -8 102 -45 119 -15 6 -26 15 -26 20 0 13 38 9 70 -7z m304 -138 c26 -45
46 -159 46 -263 l0 -52 -62 5 c-35 3 -64 7 -66 8 -2 2 3 16 11 32 26 50 40
149 34 239 -3 47 -2 82 3 79 4 -3 20 -25 34 -48z m-1062 -55 c-4 -60 23 -223
43 -263 18 -33 23 -29 -74 -52 l-64 -15 6 86 c4 57 15 113 32 162 25 69 52
130 58 130 1 0 0 -22 -1 -48z"/>
<path d="M11070 8871 c-163 -36 -236 -76 -339 -186 -137 -146 -190 -258 -198
-417 -5 -88 -8 -99 -29 -113 -27 -17 -31 -43 -9 -51 8 -3 38 3 68 14 30 12
112 32 183 45 293 57 356 68 406 72 29 3 87 8 129 11 48 4 139 0 243 -11 182
-19 259 -15 254 13 -2 9 -18 21 -36 27 l-32 9 0 96 c0 84 -4 104 -33 175 -35
87 -124 213 -183 259 -89 70 -261 93 -424 57z m384 -272 c62 -66 73 -89 42
-89 -21 0 -126 125 -126 149 0 23 19 9 84 -60z m195 -155 c6 -41 11 -91 11
-110 0 -33 -1 -34 -38 -34 -21 0 -41 2 -44 5 -3 3 3 31 13 62 12 35 19 86 19
137 1 78 1 80 15 49 8 -18 19 -67 24 -109z m-941 -123 c12 -29 28 -61 37 -71
16 -17 14 -19 -41 -30 -32 -7 -64 -14 -70 -17 -16 -6 -27 137 -14 186 6 22 18
57 27 78 l16 38 13 -65 c6 -36 21 -89 32 -119z"/>
<path d="M9270 7030 c0 -36 62 -92 145 -131 103 -48 160 -64 325 -89 359 -56
642 -28 875 87 76 37 101 54 103 71 2 13 -3 25 -11 28 -8 3 -67 -15 -131 -40
-132 -52 -213 -70 -378 -87 -209 -21 -444 19 -771 130 -81 28 -150 51 -152 51
-3 0 -5 -9 -5 -20z"/>
<path d="M8620 4152 c-14 -2 -40 -8 -58 -13 l-33 -11 3 -106 3 -107 49 -3 c61
-4 128 20 156 55 31 40 27 104 -10 147 -30 33 -61 44 -110 38z"/>
<path d="M9145 4143 c-37 -9 -104 -85 -125 -141 -25 -67 -26 -164 -2 -212 37
-75 138 -104 210 -60 87 53 147 231 108 324 -27 64 -120 108 -191 89z"/>
<path d="M9744 4132 c-77 -49 -124 -142 -124 -246 0 -108 58 -176 149 -176 60
0 103 27 142 87 55 88 73 190 45 257 -32 77 -147 119 -212 78z"/>
<path d="M3733 2802 c-74 -26 -118 -64 -149 -128 -64 -131 -13 -289 114 -350
49 -23 141 -30 200 -13 61 17 142 96 160 155 19 64 15 151 -8 199 -58 120
-196 180 -317 137z"/>
<path d="M3558 2748 c-57 -62 -73 -70 -42 -23 9 14 12 25 6 25 -5 0 -16 -10
-24 -22 -22 -33 -59 -138 -50 -138 5 0 24 21 42 46 18 26 60 75 93 110 32 35
53 64 46 64 -7 0 -39 -28 -71 -62z"/>
</g>
</svg>
